#!OML:ASF X:\für Bonn\!DataBase\2005_08_12_Daniel\c3d\Daniel.ASF
:FULLY-SPECIFIED
:DEGREES
48
root 3.83301 16.9679 0.0377058 11.4065 -108.063 -57.1748
lowerback 45.1387 11.3926 2.51005
upperback 12.4343 10.9665 -11.0808
thorax -4.41959 4.76251 -17.9066
lowerneck 14.5131 2.18254 -2.73054
upperneck 2.39836 2.4844 11.9305
head -1.84471 0.729383 3.93927
rclavicle -4.25399e-014 1.65389e-013
rhumerus -22.5088 26.0385 -63.0201
rradius 76.0684
rwrist 4.19427
rhand -19.5416 24.8041
rfingers 7.12502
rthumb 6.78235 -5.06732
lclavicle -4.25399e-014 1.65389e-013
lhumerus -64.5398 8.40895 70.6837
lradius 97.2173
lwrist 14.732
lhand -17.5171 -24.6492
lfingers 7.12502
lthumb 8.7364 5.15002
rfemur 33.2085 4.99484 9.73118
rtibia 28.3068
rfoot -17.2559 3.31793
rtoes -6.75521
lfemur -77.2166 3.12017 -14.9333
ltibia 85.9533
lfoot 16.9431 11.2591
ltoes -14.1353
49
root 3.785 17.0144 0.0145698 13.7079 -107.591 -59.6705
lowerback 45.4113 11.6698 2.27169
upperback 12.5396 11.2171 -10.8692
thorax -4.36239 4.8811 -17.6277
lowerneck 14.5154 1.93031 -2.89474
upperneck 2.63321 2.10048 12.4338
head -1.76102 0.526451 4.14591
rclavicle 1.94809e-014 -3.81667e-014
rhumerus -21.9648 24.8641 -62.8815
rradius 74.4264
rwrist 5.16569
rhand -19.0711 24.3276
rfingers 7.12502
rthumb 7.23648 -5.52869
lclavicle 1.94809e-014 -3.81667e-014
lhumerus -65.2758 7.48932 71.6688
lradius 97.7194
lwrist 14.9522
lhand -17.4737 -24.8956
lfingers 7.12502
lthumb 8.77821 4.90182
rfemur 34.7149 4.61953 9.27319
rtibia 26.4494
rfoot -16.5852 2.82382
rtoes -6.91887
lfemur -77.2458 1.40337 -13.9087
ltibia 79.2948
lfoot 14.5929 12.0749
ltoes -12.9654
50
root 3.74203 17.0625 -0.0162901 16.1506 -106.955 -62.2419
lowerback 45.5667 11.8463 2.02915
upperback 12.635 11.3747 -10.5832
thorax -4.3266 4.95213 -17.216
lowerneck 14.4938 1.74557 -3.21219
upperneck 2.89712 1.77833 12.9194
head -1.66892 0.356753 4.36869
rclavicle 1.49486e-013 -2.22639e-013
rhumerus -21.3469 23.6907 -62.8344
rradius 72.6418
rwrist 6.09952
rhand -18.7381 23.9419
rfingers 7.12502
rthumb 7.55799 -5.90304
lclavicle 1.49486e-013 -2.22639e-013
lhumerus -66.0496 6.67355 72.6971
lradius 98.3673
lwrist 15.1029
lhand -17.2205 -25.2421
lfingers 7.12502
lthumb 9.02255 4.54493
rfemur 36.254 4.11272 9.02475
rtibia 24.4906
rfoot -15.8499 2.13494
rtoes -7.22418
lfemur -77.1405 -0.368197 -12.6506
ltibia 72.5065
lfoot 12.0445 12.457
ltoes -11.6407
51
root 3.71238 17.1132 -0.0490669 18.5172 -106.271 -64.6725
lowerback 45.6355 11.9453 1.86786
upperback 12.7308 11.4872 -10.292
thorax -4.27218 5.00666 -16.8198
lowerneck 14.3442 1.57 -3.54265
upperneck 3.21716 1.45933 13.3787
head -1.5378 0.196568 4.58467
rclavicle -4.01545e-014 8.26944e-014
rhumerus -20.5973 22.212 -63.027
rradius 70.7457
rwrist 7.02391
rhand -18.2919 23.6295
rfingers 7.12502
rthumb 7.98864 -6.19952
lclavicle -4.01545e-014 8.26944e-014
lhumerus -66.7276 5.86535 73.711
lradius 99.1587
lwrist 15.2263
lhand -16.8644 -25.5866
lfingers 7.12502
lthumb 9.36622 4.18529
rfemur 37.691 3.56318 8.95371
rtibia 22.5386
rfoot -15.0478 1.35275
rtoes -7.39913
lfemur -77.0157 -2.10721 -11.0255
ltibia 65.692
lfoot 8.6842 12.484
ltoes -8.98483
52
root 3.69155 17.1565 -0.0782435 20.4015 -105.657 -66.5992
lowerback 45.7115 11.9888 1.81152
upperback 12.7943 11.5713 -10.0367
thorax -4.24536 5.04914 -16.5181
lowerneck 14.1304 1.44823 -3.85324
upperneck 3.54589 1.21359 13.8088
head -1.3978 0.07701 4.78343
rclavicle 2.66371e-014 -6.36111e-014
rhumerus -19.7131 20.4089 -63.5443
rradius 68.7836
rwrist 7.9467
rhand -17.8271 23.4231
rfingers 7.12502
rthumb 8.43717 -6.38836
lclavicle 2.66371e-014 -6.36111e-014
lhumerus -67.2914 5.16782 74.6765
lradius 100.097
lwrist 15.2298
lhand -16.4871 -25.8452
lfingers 7.12502
lthumb 9.7302 3.90999
rfemur 38.9392 3.05199 9.02081
rtibia 20.7556
rfoot -14.2076 0.597403
rtoes -7.54864
lfemur -76.8131 -3.70195 -8.97038
ltibia 59.0236
lfoot 5.06244 12.2855
ltoes -8.89699
53
root 3.67837 17.1903 -0.0972745 21.6483 -105.21 -67.8774
lowerback 45.8309 12.0158 1.88316
upperback 12.8272 11.6748 -9.84733
thorax -4.23147 5.1059 -16.3771
lowerneck 13.8068 1.34129 -4.12114
upperneck 3.92355 0.988106 14.2207
head -1.2259 -0.0252133 4.96725
rclavicle 1.82882e-014 -4.45278e-014
rhumerus -18.7773 18.3451 -64.3266
rradius 66.8424
rwrist 8.76382
rhand -17.342 23.1798
rfingers 7.12502
rthumb 8.90531 -6.61229
lclavicle 1.82882e-014 -4.45278e-014
lhumerus -67.6515 4.50433 75.6009
lradius 101.088
lwrist 15.1551
lhand -16.23 -25.9805
lfingers 7.12502
lthumb 9.97828 3.76296
rfemur 39.9173 2.6565 9.12115
rtibia 19.2536
rfoot -13.3713 -0.0733137
rtoes -7.56223
lfemur -76.4823 -5.05812 -6.56149
ltibia 52.6831
lfoot 1.19583 12.2661
ltoes -8.47388
54
root 3.6701 17.2182 -0.108232 22.2201 -104.923 -68.4763
lowerback 45.988 12.0472 2.00357
upperback 12.8103 11.7959 -9.68375
thorax -4.2681 5.16844 -16.3081
lowerneck 13.4243 1.26951 -4.48341
upperneck 4.33107 0.793253 14.6333
head -1.03829 -0.108666 5.16502
rclavicle -5.80451e-014 2.8625e-014
rhumerus -17.8355 16.2617 -65.274
rradius 64.9537
rwrist 9.3132
rhand -16.9655 22.8447
rfingers 7.12502
rthumb 9.26859 -6.93157
lclavicle -5.80451e-014 2.8625e-014
lhumerus -67.8726 3.95614 76.4909
lradius 102.133
lwrist 15.0639
lhand -16.1098 -25.9888
lfingers 7.12502
lthumb 10.0942 3.74909
rfemur 40.5744 2.37938 9.23364
rtibia 18.1717
rfoot -12.6305 -0.636805
rtoes -7.61874
lfemur -76.0641 -6.10503 -4.01628
ltibia 46.9488
lfoot -2.69227 12.2274
ltoes -10.3405
55
root 3.66317 17.2451 -0.115403 22.2161 -104.67 -68.5544
lowerback 46.2182 12.06 2.19863
upperback 12.7704 11.9206 -9.51798
thorax -4.33804 5.23107 -16.2864
lowerneck 13.0963 1.2063 -4.77695
upperneck 4.65551 0.630718 14.9318
head -0.88299 -0.176162 5.31416
rclavicle -9.30312e-014 1.36764e-013
rhumerus -16.8872 14.1616 -66.3651
rradius 62.9884
rwrist 9.60669
rhand -16.8067 22.4986
rfingers 7.12502
rthumb 9.42184 -7.27076
lclavicle -9.30312e-014 1.36764e-013
lhumerus -67.9325 3.4768 77.3414
lradius 103.189
lwrist 14.9913
lhand -16.1308 -25.93
lfingers 7.12502
lthumb 10.074 3.80885
rfemur 41.0241 2.14625 9.42842
rtibia 17.5149
rfoot -12.0148 -1.17492
rtoes -7.45518
lfemur -75.6948 -6.88065 -1.51146
ltibia 42.096
lfoot -5.93931 12.2961
ltoes -12.9381
